<svg xmlns="http://www.w3.org/2000/svg" width="192" height="192" viewBox="0 0 192 192">
  <!-- Background (optional, remove if transparent needed) -->
  <rect width="192" height="192" fill="white"/>

  <!-- Trachea -->
  <rect x="92" y="20" width="8" height="40" rx="4" fill="#2b5c8a"/>

  <!-- Carina -->
  <path d="M96 60 L78 78" stroke="#2b5c8a" stroke-width="8" fill="none"/>
  <path d="M96 60 L114 78" stroke="#2b5c8a" stroke-width="8" fill="none"/>

  <!-- Left (healthy) lung -->
  <path d="M88 78
           C 60 70, 38 100, 42 134
           C 46 164, 64 178, 84 174
           C 96 170, 102 156, 104 138
           C 106 116, 104 96, 88 78 Z"
        fill="#78b7dd" stroke="#2b5c8a" stroke-width="6"/>

  <!-- Right (ARDS) lung -->
  <path d="M104 78
           C 132 70, 154 100, 150 134
           C 146 164, 128 178, 108 174
           C 96 170, 90 156, 88 138
           C 86 116, 88 96, 104 78 Z"
        fill="#78b7dd" stroke="#2b5c8a" stroke-width="6"/>

  <!-- ARDS infiltrates (warm red opacities) -->
  <circle cx="128" cy="105" r="12" fill="#e36464" opacity="0.95"/>
  <circle cx="140" cy="122" r="10" fill="#e36464" opacity="0.85"/>
  <circle cx="118" cy="128" r="10" fill="#e36464" opacity="0.80"/>
<!--  <circle cx="134" cy="92"  r="10" fill="#e36464" opacity="0.85"/>-->
  <circle cx="112" cy="142" r="10" fill="#e36464" opacity="0.80"/>
  <circle cx="126" cy="150" r="8"  fill="#e36464" opacity="0.85"/>

</svg>
